<svg xmlns="http://www.w3.org/2000/svg" width="16.243" height="12.182" viewBox="0 0 16.243 12.182">
  <g id="envelope" transform="translate(0 -64)">
    <g id="Group_9" data-name="Group 9" transform="translate(0 64)">
      <g id="Group_8" data-name="Group 8" transform="translate(0 0)">
        <path id="Path_10" data-name="Path 10" d="M7.033,64.988c2.229,1.888,6.141,5.21,7.291,6.245a.679.679,0,0,0,.982,0c1.151-1.037,5.062-4.359,7.292-6.247a.338.338,0,0,0,.048-.467A1.344,1.344,0,0,0,21.584,64H8.048a1.344,1.344,0,0,0-1.062.521A.338.338,0,0,0,7.033,64.988Z" transform="translate(-6.694 -64)" fill="#fff"/>
        <path id="Path_11" data-name="Path 11" d="M16.047,126.443a.337.337,0,0,0-.361.049c-2.472,2.1-5.628,4.782-6.62,5.677a1.37,1.37,0,0,1-1.889,0c-1.058-.953-4.6-3.966-6.62-5.676A.338.338,0,0,0,0,126.75v8.51a1.355,1.355,0,0,0,1.354,1.354H14.89a1.355,1.355,0,0,0,1.354-1.354v-8.51A.338.338,0,0,0,16.047,126.443Z" transform="translate(0 -124.432)" fill="#fff"/>
      </g>
    </g>
  </g>
</svg>
