<svg id="instagram" xmlns="http://www.w3.org/2000/svg" width="15" height="15" viewBox="0 0 15 15">
  <g id="Group_3" data-name="Group 3" transform="translate(0 0)">
    <g id="Group_2" data-name="Group 2">
      <path id="Path_3" data-name="Path 3" d="M10.312,0H4.687A4.688,4.688,0,0,0,0,4.688v5.625A4.688,4.688,0,0,0,4.687,15h5.625A4.688,4.688,0,0,0,15,10.313V4.688A4.688,4.688,0,0,0,10.312,0Zm3.281,10.313a3.285,3.285,0,0,1-3.281,3.281H4.687a3.285,3.285,0,0,1-3.281-3.281V4.688A3.285,3.285,0,0,1,4.687,1.406h5.625a3.285,3.285,0,0,1,3.281,3.281Z" transform="translate(0)" fill="#fff"/>
    </g>
  </g>
  <g id="Group_5" data-name="Group 5" transform="translate(3.75 3.75)">
    <g id="Group_4" data-name="Group 4">
      <path id="Path_4" data-name="Path 4" d="M131.75,128a3.75,3.75,0,1,0,3.75,3.75A3.75,3.75,0,0,0,131.75,128Zm0,6.094a2.344,2.344,0,1,1,2.344-2.344A2.347,2.347,0,0,1,131.75,134.094Z" transform="translate(-128 -128)" fill="#fff"/>
    </g>
  </g>
  <g id="Group_7" data-name="Group 7" transform="translate(11.032 2.969)">
    <g id="Group_6" data-name="Group 6">
      <ellipse id="Ellipse_1" data-name="Ellipse 1" cx="0.5" cy="0.5" rx="0.5" ry="0.5" fill="#fff"/>
    </g>
  </g>
</svg>
