<svg id="linkedin" xmlns="http://www.w3.org/2000/svg" width="12.786" height="12.786" viewBox="0 0 12.786 12.786">
  <path id="Path_6" data-name="Path 6" d="M16.749,16.325h0V11.635c0-2.294-.494-4.061-3.176-4.061a2.784,2.784,0,0,0-2.508,1.378h-.037V7.788H8.489v8.536h2.648V12.1c0-1.113.211-2.189,1.589-2.189,1.358,0,1.378,1.27,1.378,2.261v4.156Z" transform="translate(-3.966 -3.539)" fill="#fff"/>
  <path id="Path_7" data-name="Path 7" d="M.4,7.977H3.047v8.536H.4Z" transform="translate(-0.185 -3.727)" fill="#fff"/>
  <path id="Path_8" data-name="Path 8" d="M1.535,0A1.543,1.543,0,1,0,3.071,1.535,1.536,1.536,0,0,0,1.535,0Z" fill="#fff"/>
</svg>
