<svg xmlns="http://www.w3.org/2000/svg" width="13.17" height="10.701" viewBox="0 0 13.17 10.701">
  <path id="Path_9" data-name="Path 9" d="M13.17,49.267a5.629,5.629,0,0,1-1.556.426A2.685,2.685,0,0,0,12.8,48.2a5.4,5.4,0,0,1-1.712.654A2.7,2.7,0,0,0,6.42,50.7a2.78,2.78,0,0,0,.063.616A7.642,7.642,0,0,1,.917,48.492a2.7,2.7,0,0,0,.83,3.609,2.666,2.666,0,0,1-1.22-.333v.03A2.712,2.712,0,0,0,2.69,54.451a2.7,2.7,0,0,1-.708.089,2.387,2.387,0,0,1-.511-.046,2.726,2.726,0,0,0,2.523,1.881A5.425,5.425,0,0,1,.646,57.526,5.057,5.057,0,0,1,0,57.489,7.6,7.6,0,0,0,4.142,58.7a7.632,7.632,0,0,0,7.685-7.683c0-.119,0-.235-.01-.349A5.386,5.386,0,0,0,13.17,49.267Z" transform="translate(0 -48)" fill="#fff"/>
</svg>
