<svg xmlns="http://www.w3.org/2000/svg" width="14.398" height="14.428" viewBox="0 0 14.398 14.428">
  <g id="phone-call" transform="translate(-0.539 0)">
    <g id="Group_1" data-name="Group 1" transform="translate(0.539 0)">
      <path id="Path_2" data-name="Path 2" d="M14.559,10.589,12.546,8.575a1.339,1.339,0,0,0-2.229.5,1.37,1.37,0,0,1-1.582.863A6.209,6.209,0,0,1,5,6.2,1.3,1.3,0,0,1,5.858,4.62a1.339,1.339,0,0,0,.5-2.229L4.348.378a1.436,1.436,0,0,0-1.942,0L1.04,1.744c-1.366,1.438.144,5.249,3.524,8.629s7.191,4.962,8.629,3.524l1.366-1.366A1.436,1.436,0,0,0,14.559,10.589Z" transform="translate(-0.539 0)" fill="#fff"/>
    </g>
  </g>
</svg>
