<svg id="time" xmlns="http://www.w3.org/2000/svg" width="33.916" height="33.916" viewBox="0 0 33.916 33.916">
  <g id="Group_17" data-name="Group 17">
    <g id="Group_16" data-name="Group 16">
      <path id="Path_15" data-name="Path 15" d="M16.958,0A16.958,16.958,0,1,0,33.916,16.958,16.958,16.958,0,0,0,16.958,0Zm0,31.493A14.535,14.535,0,1,1,31.493,16.958,14.535,14.535,0,0,1,16.958,31.493Z" fill="#3c57a6"/>
    </g>
  </g>
  <g id="Group_19" data-name="Group 19" transform="translate(6.056 6.056)">
    <g id="Group_18" data-name="Group 18">
      <path id="Path_16" data-name="Path 16" d="M96.235,85.333a1.211,1.211,0,0,0-1.211,1.211v8.479H86.544a1.211,1.211,0,1,0,0,2.423h9.69a1.211,1.211,0,0,0,1.211-1.211v-9.69A1.211,1.211,0,0,0,96.235,85.333Z" transform="translate(-85.333 -85.333)" fill="#3c57a6"/>
    </g>
  </g>
</svg>
